# xmcd
#
# Track frame offsets:
#	116035
#	132775
#	151400
#	168768
#	186653
#	204388
#	223258
#	241958
#	261243
#	277765
#	293875
#
# Disc length: 4092 seconds
#
# Revision: 3
# Processed by: cddbd v1.5.2PL0 Copyright (c) Steve Scherf et al.
# Submitted via: audiograbber 1.83.01
#
DISCID=b309f10b
DTITLE=Gretchen Peters - The Secret Of Life
DYEAR=1996
DGENRE=Country
TTITLE0=Waiting For The Light To Turn Green
TTITLE1=Border Town
TTITLE2=I Ain't Ever Satisfied
TTITLE3=I Was Looking For You
TTITLE4=On A Bus To St. Cloud
TTITLE5=Over Africa
TTITLE6=This Uncivil War
TTITLE7=The Secret Of Life
TTITLE8=A Room With A View
TTITLE9=Circus Girl
TTITLE10=When You Are Old
EXTD=
EXTT0=
EXTT1=
EXTT2=
EXTT3=
EXTT4=
EXTT5=
EXTT6=
EXTT7=
EXTT8=
EXTT9=
EXTT10=
PLAYORDER=
